<svg xmlns="http://www.w3.org/2000/svg" xmlns:xlink="http://www.w3.org/1999/xlink" version="1.1" x="0px" y="0px" viewBox="0 0 64 110" style="enable-background:new 0 0 64 88;" xml:space="preserve"><g><g><rect x="43" y="8.5" width="2" height="4"/><path d="M47.5,19H45v-2.5h-2V20c0,0.553,0.447,1,1,1h3.5V19z"/><rect x="51.167" y="19" width="3.667" height="2"/><path d="M1,61.843c0.552,0,1-0.448,1-1v-8c0-0.552-0.448-1-1-1s-1,0.448-1,1v8C0,61.396,0.448,61.843,1,61.843z"/><path d="M1,77.843c0.552,0,1-0.448,1-1v-8c0-0.552-0.448-1-1-1s-1,0.448-1,1v8C0,77.396,0.448,77.843,1,77.843z"/><path d="M5.272,86H2v-1.157c0-0.552-0.448-1-1-1s-1,0.448-1,1V87c0,0.552,0.448,1,1,1h4.272c0.552,0,1-0.448,1-1    S5.825,86,5.272,86z"/><path d="M35.586,2H43v2.5h2V3.486c0.03,0.003,0.059,0.017,0.089,0.017c0.256,0,0.512-0.098,0.707-0.293    c0.391-0.391,0.391-1.024,0-1.414c0,0-0.023-0.023-0.065-0.065c-0.041-0.041-0.1-0.1-0.17-0.17    c-0.07-0.07-0.153-0.153-0.241-0.241s-0.182-0.182-0.276-0.276s-0.188-0.188-0.276-0.276s-0.17-0.17-0.241-0.241    s-0.129-0.129-0.17-0.17c-0.031-0.031-0.051-0.051-0.06-0.06l0,0l-0.004-0.004C44.106,0.106,43.853,0.001,43.589,0    c-0.001,0-0.002,0-0.003,0h-8c-0.552,0-1,0.448-1,1S35.034,2,35.586,2z"/><path d="M12.586,1c0-0.552-0.448-1-1-1h-8c-0.552,0-1,0.448-1,1s0.448,1,1,1h8C12.138,2,12.586,1.552,12.586,1z"/><path d="M1,13.843c0.552,0,1-0.448,1-1v-8c0-0.552-0.448-1-1-1s-1,0.448-1,1v8C0,13.396,0.448,13.843,1,13.843z"/><path d="M1,45.843c0.552,0,1-0.448,1-1v-8c0-0.552-0.448-1-1-1s-1,0.448-1,1v8C0,45.396,0.448,45.843,1,45.843z"/><path d="M1,29.843c0.552,0,1-0.448,1-1v-8c0-0.552-0.448-1-1-1s-1,0.448-1,1v8C0,29.396,0.448,29.843,1,29.843z"/><path d="M63,49.299c-0.552,0-1,0.448-1,1v8c0,0.552,0.448,1,1,1s1-0.448,1-1v-8C64,49.746,63.552,49.299,63,49.299z"/><path d="M21.272,86h-8c-0.552,0-1,0.448-1,1s0.448,1,1,1h8c0.552,0,1-0.448,1-1S21.825,86,21.272,86z"/><path d="M63,81.299c-0.552,0-1,0.448-1,1V86h-0.728c-0.552,0-1,0.448-1,1s0.448,1,1,1H63c0.552,0,1-0.448,1-1v-4.701    C64,81.746,63.552,81.299,63,81.299z"/><path d="M63,65.299c-0.552,0-1,0.448-1,1v8c0,0.552,0.448,1,1,1s1-0.448,1-1v-8C64,65.746,63.552,65.299,63,65.299z"/><path d="M63.707,19.707c0,0-0.015-0.015-0.04-0.04s-0.062-0.062-0.107-0.107c-0.044-0.044-0.095-0.095-0.151-0.151    s-0.114-0.114-0.173-0.173s-0.118-0.118-0.173-0.173s-0.107-0.107-0.151-0.151s-0.081-0.081-0.107-0.107    c-0.026-0.026-0.04-0.04-0.04-0.04c-0.195-0.195-0.451-0.293-0.707-0.293s-0.512,0.098-0.707,0.293    c-0.069,0.069-0.11,0.152-0.155,0.233H58.5v2H62v5.299c0,0.552,0.448,1,1,1s1-0.448,1-1v-5.885    C64,20.149,63.895,19.895,63.707,19.707z"/><path d="M63,33.299c-0.552,0-1,0.448-1,1v8c0,0.552,0.448,1,1,1s1-0.448,1-1v-8C64,33.746,63.552,33.299,63,33.299z"/><path d="M37.272,86h-8c-0.552,0-1,0.448-1,1s0.448,1,1,1h8c0.552,0,1-0.448,1-1S37.825,86,37.272,86z"/><path d="M28.586,1c0-0.552-0.448-1-1-1h-8c-0.552,0-1,0.448-1,1s0.448,1,1,1h8C28.138,2,28.586,1.552,28.586,1z"/><path d="M56.867,12.867c-0.155-0.155-0.376-0.376-0.641-0.641c-0.265-0.265-0.575-0.575-0.906-0.906    c-0.331-0.331-0.685-0.685-1.039-1.039c-0.354-0.354-0.707-0.707-1.039-1.039c-0.331-0.331-0.641-0.641-0.906-0.906    S51.85,7.85,51.695,7.695s-0.243-0.243-0.243-0.243c-0.195-0.195-0.451-0.293-0.707-0.293s-0.512,0.098-0.707,0.293    c-0.391,0.391-0.391,1.024,0,1.414l5.657,5.657c0.195,0.195,0.451,0.293,0.707,0.293s0.512-0.098,0.707-0.293    c0.391-0.391,0.391-1.024,0-1.414C57.11,13.11,57.021,13.021,56.867,12.867z"/><path d="M53.272,86h-8c-0.552,0-1,0.448-1,1s0.448,1,1,1h8c0.552,0,1-0.448,1-1S53.825,86,53.272,86z"/></g></g></svg>