<svg xmlns="http://www.w3.org/2000/svg" xmlns:xlink="http://www.w3.org/1999/xlink" version="1.1" x="0px" y="0px" viewBox="0 0 40 50" enable-background="new 0 0 40 40" xml:space="preserve"><g><polygon points="-28.683,39.645 -28.683,48.33 -9,32.008 -9,23.596 -28.673,39.645  "/><polygon points="-42.98,48.845 -42.549,48.845 -42.528,48.845 -29.673,48.845 -29.673,39.645 -42.98,39.645  "/><path d="M-9.077,6.671V-8.845h-1.529l-2.486,2.134L-23.716-6.72v-2.125H-23.9h-0.736h-0.767l-2.426,2.122l-9.009-0.007v-2.115   h-0.017h-0.902h-0.601l-2.402,2.112l-9.493-0.008v-2.104h-0.92L-68.915,6.67l0.006,0.007L-69,6.754v27.275h11.906V9.818V6.754   V6.671h-4.811h-2.339h-0.562L-50.75-5.792v0.042l8.862,0.007L-56.104,6.754v27.275h12.133v-23.5V6.754V6.671h-4.67h-1.799h-0.95   L-37.392-5.74l8.431,0.007L-42.98,6.527v27.502h12.307l1-0.816V9.354v-2.6V6.671h-5.722h-1.025h-1.848l13.986-12.401l10.036,0.008   L-28.683,6.671v25.733L-9,16.35V6.671H-9.077z M-50.75-8.337l-0.043-0.021l0.043-0.04V-8.337z"/><polygon points="-56.104,48.845 -55.774,48.845 -55.754,48.845 -43.971,48.845 -43.971,39.645 -56.104,39.645  "/><rect x="-69" y="39.644" width="11.906" height="9.2"/></g><g><polygon points="26.878,33.097 26.878,38.887 40,28.005 40,22.397 26.884,33.097  "/><polygon points="17.346,39.229 17.634,39.229 17.648,39.229 26.218,39.229 26.218,33.097 17.346,33.097  "/><path d="M39.949,11.114V0.77h-1.02l-1.657,1.423l-7.083-0.006V0.77h-0.122h-0.491h-0.511l-1.618,1.415L21.441,2.18V0.77h-0.012   h-0.602h-0.4l-1.601,1.408l-6.329-0.005V0.77h-0.613L0.057,11.114l0.004,0.004L0,11.169v18.184h7.937V13.212v-2.042v-0.055H4.73   H3.171H2.796l9.371-8.309v0.028l5.908,0.004l-9.477,8.332v18.184h8.089V13.686v-2.517v-0.055h-3.113h-1.199H11.74l9.332-8.274   l5.621,0.004l-9.346,8.174v18.335h8.205l0.667-0.544V12.902v-1.733v-0.055h-3.815H21.72h-1.232l9.324-8.267l6.691,0.005   l-9.625,8.262V28.27L40,17.567v-6.453H39.949z M12.167,1.109l-0.029-0.014l0.029-0.026V1.109z"/><polygon points="8.597,39.229 8.817,39.229 8.831,39.229 16.686,39.229 16.686,33.097 8.597,33.097  "/><rect x="0" y="33.097" width="7.937" height="6.133"/></g><g><polygon points="68.159,29.822 68.159,34.165 78,26.004 78,21.798 68.163,29.822  "/><polygon points="61.01,34.422 61.226,34.422 61.236,34.422 67.663,34.422 67.663,29.822 61.01,29.822  "/><path d="M77.961,13.336V5.578h-0.765l-1.243,1.067L70.642,6.64V5.578H70.55h-0.368h-0.383l-1.213,1.061l-4.504-0.003V5.578h-0.009   h-0.451h-0.3l-1.201,1.056L57.373,6.63V5.578h-0.46l-8.871,7.757l0.003,0.004L48,13.377v13.638h5.953V14.909v-1.532v-0.041h-2.405   h-1.17h-0.28l7.027-6.231v0.021l4.431,0.003l-7.108,6.249v13.638h6.066v-11.75v-1.888v-0.041H58.18H57.28h-0.475l6.999-6.206   l4.216,0.003l-7.01,6.13v13.751h6.153l0.5-0.408v-11.93v-1.3v-0.041h-2.86H64.29h-0.924l6.993-6.201l5.018,0.004l-7.219,6.197   v12.866L78,18.175v-4.839H77.961z M57.125,5.832l-0.022-0.01l0.022-0.02V5.832z"/><polygon points="54.448,34.422 54.613,34.422 54.623,34.422 60.515,34.422 60.515,29.822 54.448,29.822  "/><rect x="48" y="29.822" width="5.953" height="4.6"/></g><g><polygon points="97.439,26.548 97.439,29.443 104,24.002 104,21.199 97.442,26.548  "/><polygon points="92.673,29.615 92.817,29.615 92.824,29.615 97.109,29.615 97.109,26.548 92.673,26.548  "/><path d="M103.974,15.557v-5.172h-0.51l-0.829,0.711l-3.541-0.003v-0.708h-0.062h-0.245h-0.256l-0.809,0.707L94.72,11.09v-0.705   h-0.006h-0.301h-0.2l-0.801,0.704l-3.164-0.003v-0.701h-0.307l-5.914,5.171l0.002,0.003L84,15.585v9.092h3.969v-8.07v-1.022v-0.027   h-1.604h-0.78h-0.187l4.685-4.154v0.014l2.954,0.002l-4.739,4.166v9.092h4.044v-7.833v-1.259v-0.027h-1.557h-0.6H89.87l4.666-4.137   l2.81,0.003l-4.673,4.087v9.167h4.102l0.333-0.272v-7.953v-0.867v-0.027h-1.907H94.86h-0.616l4.662-4.134l3.345,0.003l-4.812,4.131   v8.578L104,18.783v-3.226H103.974z M90.083,10.554l-0.015-0.007l0.015-0.013V10.554z"/><polygon points="88.299,29.615 88.409,29.615 88.415,29.615 92.343,29.615 92.343,26.548 88.299,26.548  "/><rect x="84" y="26.548" width="3.969" height="3.066"/></g></svg>