<svg xmlns="http://www.w3.org/2000/svg" xmlns:xlink="http://www.w3.org/1999/xlink" version="1.1" x="0px" y="0px" viewBox="0 0 100 125" style="enable-background:new 0 0 100 100;" xml:space="preserve"><style type="text/css">
	.st0{fill:#231F20;}
</style><g><path class="st0" d="M77.3,20.4c-0.2-0.2-0.6-0.2-0.9,0L38.5,58.4c-0.2,0.2-0.2,0.6,0,0.9c0.1,0.1,0.3,0.2,0.4,0.2s0.3-0.1,0.4-0.2   l37.9-37.9C77.6,21.1,77.6,20.7,77.3,20.4z"/><path class="st0" d="M80.9,17.5c0.2,0,0.3-0.1,0.4-0.2l1.7-1.7c0.2-0.2,0.2-0.6,0-0.9c-0.2-0.2-0.6-0.2-0.9,0l-1.7,1.7   c-0.2,0.2-0.2,0.6,0,0.9C80.5,17.5,80.7,17.5,80.9,17.5z"/><path class="st0" d="M90.7,78.4c-0.9-0.9-2.2-1.2-3.4-0.9L72.8,63l2.4-2.4c0.7-0.2,1.3-0.6,1.8-1c1.6-1.6,1.6-4.2,0-5.9   c-1.6-1.6-4.2-1.6-5.9,0c-0.5,0.5-0.9,1.1-1,1.8l-1.7,1.7l-9.3-9.3l28.7-28.7c0.1-0.1,0.2-0.3,0.2-0.4v-8.3c0-0.3-0.3-0.6-0.6-0.6   h-8.3c-0.2,0-0.3,0.1-0.4,0.2L50,38.6L21.3,10c-0.1-0.1-0.3-0.2-0.4-0.2h-8.3c-0.3,0-0.6,0.3-0.6,0.6v8.3c0,0.2,0.1,0.3,0.2,0.4   l28.7,28.7l-9.3,9.3l-1.7-1.7c-0.2-0.7-0.6-1.3-1-1.8c-0.8-0.8-1.8-1.2-2.9-1.2s-2.1,0.4-2.9,1.2s-1.2,1.8-1.2,2.9s0.4,2.1,1.2,2.9   c0.5,0.5,1.1,0.9,1.8,1l2.4,2.4L12.6,77.5c-1.2-0.3-2.4,0-3.3,0.9l-0.9,0.9c-1.4,1.4-1.4,3.6,0,5l5.2,5.2c0.7,0.7,1.6,1,2.5,1   s1.8-0.3,2.5-1l0.9-0.9c0.9-0.9,1.2-2.2,0.9-3.4l14.5-14.5l2.4,2.4c0.2,0.7,0.6,1.3,1,1.8c0.8,0.8,1.9,1.2,2.9,1.2s2.1-0.4,2.9-1.2   c0.8-0.8,1.2-1.8,1.2-2.9c0-1.1-0.4-2.1-1.2-2.9c-0.5-0.5-1.1-0.9-1.8-1l-1.7-1.7L50,57l9.3,9.3L57.6,68c-0.7,0.2-1.3,0.6-1.8,1   c-1.6,1.6-1.6,4.2,0,5.9c0.8,0.8,1.9,1.2,2.9,1.2c1.1,0,2.1-0.4,2.9-1.2c0.5-0.5,0.9-1.1,1-1.8l2.4-2.4l14.5,14.5   c-0.3,1.2,0,2.4,0.9,3.3l0.9,0.9c0.7,0.7,1.6,1,2.5,1s1.8-0.3,2.5-1l5.2-5.2c1.4-1.4,1.4-3.6,0-5L90.7,78.4z M13.2,18.4v-7.4h7.4   l28.5,28.5l-3.2,3.2L23.5,20.5c-0.2-0.2-0.6-0.2-0.9,0s-0.2,0.6,0,0.9l22.3,22.3l-3.2,3.2L13.2,18.4z M18.5,87.7l-0.9,0.9   c-0.9,0.9-2.4,0.9-3.2,0l-5.2-5.2c-0.4-0.4-0.7-1-0.7-1.6c0-0.6,0.2-1.2,0.7-1.6l0.9-0.9c0.4-0.4,1-0.7,1.6-0.7s1.2,0.2,1.6,0.7   l5.2,5.2C19.4,85.3,19.4,86.8,18.5,87.7z M19.8,83.9l-5.9-5.9l0.9-0.9h11.8L19.8,83.9z M27.9,75.8H16l3.7-3.7h11.8L27.9,75.8z    M32.8,70.8H21l7-7l5.9,5.9L32.8,70.8z M41.6,69c0.1,0.1,0.2,0.1,0.3,0.2c0.5,0.1,1,0.4,1.4,0.8c0,0,0,0,0,0c0.5,0.5,0.8,1.3,0.8,2   c0,0.8-0.3,1.5-0.8,2c-1.1,1.1-3,1.1-4.1,0c-0.4-0.4-0.6-0.8-0.8-1.4c0-0.1-0.1-0.2-0.2-0.3l-3-3c0,0,0,0,0,0l-3.4-3.4l-6.4-6.4   c-0.1-0.1-0.2-0.1-0.3-0.2c-0.5-0.1-1-0.4-1.4-0.8c-0.5-0.5-0.8-1.3-0.8-2s0.3-1.5,0.8-2c0.5-0.5,1.3-0.8,2-0.8s1.5,0.3,2,0.8   c0.4,0.4,0.6,0.8,0.8,1.4c0,0.1,0.1,0.2,0.2,0.3l6.4,6.4l4.1,4.1c0,0,0,0,0,0L41.6,69z M49.5,55.6C49.5,55.6,49.5,55.6,49.5,55.6   C49.5,55.6,49.5,55.6,49.5,55.6l-9.8,9.8L32.4,58l47-47h7.4v7.4L57.8,47.4c0,0,0,0,0,0s0,0,0,0L49.5,55.6z M50.8,56.1l3.2-3.2   l6.5,6.5c0.1,0.1,0.3,0.2,0.4,0.2s0.3-0.1,0.4-0.2c0.2-0.2,0.2-0.6,0-0.9L55,51.9l3.2-3.2l9.3,9.3l-7.4,7.4L50.8,56.1z M64.7,69.4   l-3,3c-0.1,0.1-0.1,0.2-0.2,0.3c-0.1,0.5-0.4,1-0.8,1.4c-1.1,1.1-3,1.1-4.1,0c-1.1-1.1-1.1-3,0-4.1c0.4-0.4,0.8-0.6,1.4-0.8   c0.1,0,0.2-0.1,0.3-0.2l2.2-2.2l8.3-8.3l2.2-2.2c0.1-0.1,0.1-0.2,0.2-0.3c0.1-0.5,0.4-1,0.8-1.4c0.6-0.6,1.3-0.8,2-0.8   s1.5,0.3,2,0.8c1.1,1.1,1.1,3,0,4.1c-0.4,0.4-0.8,0.6-1.4,0.8c-0.1,0-0.2,0.1-0.3,0.2l-3,3L64.7,69.4z M66,69.8l5.9-5.9l7,7H67.1   L66,69.8z M68.4,72.1h11.8l3.7,3.7H72.1L68.4,72.1z M80.1,83.9l-6.8-6.8h11.8L86,78L80.1,83.9z M90.7,83.3l-5.2,5.2   c-0.9,0.9-2.3,0.9-3.2,0l-0.9-0.9c-0.9-0.9-0.9-2.3,0-3.2l5.2-5.2c0.4-0.4,1-0.7,1.6-0.7c0.6,0,1.2,0.2,1.6,0.7l0.9,0.9   C91.6,81,91.6,82.5,90.7,83.3z"/><path class="st0" d="M17.8,14.8c-0.2-0.2-0.6-0.2-0.9,0s-0.2,0.6,0,0.9l1.7,1.7c0.1,0.1,0.3,0.2,0.4,0.2s0.3-0.1,0.4-0.2   c0.2-0.2,0.2-0.6,0-0.9L17.8,14.8z"/></g></svg>