<svg xmlns="http://www.w3.org/2000/svg" xmlns:xlink="http://www.w3.org/1999/xlink" version="1.1" x="0px" y="0px" viewBox="0 0 100 125" enable-background="new 0 0 100 100" xml:space="preserve"><path d="M48.028,35.441c0.407,0.07,0.723,0.409,0.723,0.834c0,0.476-0.388,0.863-0.865,0.863c-0.475,0-0.862-0.388-0.862-0.863  c0-0.426,0.315-0.765,0.723-0.834h-1.619c-0.119,0.253-0.193,0.535-0.193,0.834c0,1.078,0.877,1.954,1.952,1.954  c1.078,0,1.955-0.876,1.955-1.954c0-0.3-0.074-0.581-0.193-0.834H48.028z"/><path d="M31.278,36.003c0.407,0.07,0.723,0.409,0.723,0.834c0,0.476-0.388,0.863-0.865,0.863c-0.475,0-0.862-0.388-0.862-0.863  c0-0.426,0.315-0.765,0.723-0.834h-1.619c-0.119,0.253-0.193,0.535-0.193,0.834c0,1.078,0.877,1.954,1.952,1.954  c1.078,0,1.955-0.876,1.955-1.954c0-0.3-0.074-0.581-0.193-0.834H31.278z"/><path d="M41.475,65.049c-1.378,0-2.439-0.127-2.892-0.191c-0.668-0.096-3.321-0.874-4.716-1.833c-1.54-1.06-3.874-3.3-6.356-10.499  c-2.201-6.383-0.693-12.836,0.402-16.114c0.225-0.675-0.835-2.998-1.938-4.786c-0.076-0.124-0.095-0.275-0.05-0.414  c0.044-0.139,0.146-0.252,0.28-0.309c0.373-0.159,1.377-0.749,1.538-1.554c0.329-1.646,2.116-6.559,6.374-9.48  c2.848-1.954,5.235-1.554,8.262-1.047c1.689,0.283,3.598,0.604,5.925,0.543c0.039-0.001,0.078-0.001,0.118-0.001  c3.593,0,6.184,4.274,6.678,5.768c0.341,1.164,3.296,10.805,8.578,11.995c0.269,0.061,0.438,0.328,0.377,0.598  c-0.06,0.27-0.323,0.439-0.598,0.378c-5.719-1.289-8.748-10.74-9.297-12.622c-0.384-1.167-2.662-5.117-5.737-5.117  c-0.031,0-0.062,0-0.094,0.001c-2.425,0.059-4.382-0.267-6.115-0.557c-2.912-0.486-5.015-0.839-7.53,0.886  c-3.964,2.72-5.674,7.42-5.96,8.853c-0.2,1.002-1.059,1.672-1.623,2.014c0.699,1.195,2.174,3.931,1.774,5.13  c-1.068,3.198-2.523,9.408-0.419,15.512c2.662,7.72,5.157,9.437,5.978,10.001c1.227,0.844,3.72,1.586,4.288,1.667  c1.312,0.188,8.058,0.933,12.086-2.869c0.201-0.189,0.519-0.18,0.706,0.021c0.189,0.201,0.181,0.518-0.021,0.707  C48.55,64.503,44.333,65.049,41.475,65.049z"/><path d="M40.401,56.445c-0.033,0-0.065-0.003-0.099-0.01c-3.432-0.686-3.682-0.853-3.764-0.908c-0.23-0.154-0.292-0.464-0.139-0.694  c0.147-0.22,0.438-0.284,0.662-0.157c0.272,0.112,1.95,0.481,3.436,0.778c0.271,0.054,0.446,0.317,0.393,0.588  C40.843,56.281,40.635,56.445,40.401,56.445z"/><path d="M36.649,46.945c-0.081,0-0.162-0.019-0.237-0.06c-1.004-0.542-1.476-0.977-1.63-1.498c-0.182-0.617,0.13-1.185,0.524-1.903  c0.167-0.306,0.361-0.66,0.557-1.083c0.897-1.945,0.095-8.021-0.11-8.736c-0.076-0.266,0.077-0.542,0.343-0.618  c0.268-0.076,0.542,0.078,0.618,0.343c0.188,0.656,1.145,7.075,0.058,9.43c-0.206,0.447-0.411,0.821-0.589,1.144  c-0.282,0.515-0.505,0.922-0.441,1.14c0.065,0.222,0.451,0.525,1.146,0.9c0.243,0.131,0.334,0.435,0.202,0.678  C36.999,46.851,36.827,46.945,36.649,46.945z"/><path d="M41.262,47.397c-0.117,0-0.234-0.041-0.329-0.124c-0.208-0.182-0.229-0.498-0.047-0.706c0.194-0.222,0.28-0.459,0.262-0.723  c-0.042-0.626-0.649-1.286-0.88-1.486c-0.208-0.181-0.23-0.497-0.05-0.705c0.181-0.208,0.495-0.231,0.704-0.051  c0.116,0.101,1.143,1.018,1.224,2.17c0.037,0.529-0.139,1.032-0.508,1.454C41.539,47.339,41.4,47.397,41.262,47.397z"/><path d="M57.562,91.344c-1.433,0-2.862-0.748-3.408-1.866c-0.266-0.544-0.684-1.982,1.17-3.578c1.62-1.395,1.628-1.854,1.644-2.768  c0.013-0.691,0.029-1.638,0.632-3.2c0.827-2.141,0.604-2.541,0.008-3.611c-0.354-0.635-0.839-1.506-1.271-2.986  c-0.954-3.271-0.698-6.358,0.78-9.44c1-2.083,1.146-2.715,1.63-4.812c0.338-1.463-0.372-2.173-1.354-3.156  c-0.259-0.259-0.526-0.526-0.783-0.817c-1.45-1.644-1.607-7.174-1.287-9.808c0.287-2.37,2.849-7.33,3.813-9.198  c0.163-0.315,0.271-0.524,0.3-0.59c0.105-0.246,0.39-0.372,0.641-0.277c0.25,0.095,0.384,0.362,0.3,0.617  c-0.016,0.047-0.143,0.305-0.352,0.71c-0.853,1.649-3.443,6.668-3.71,8.859c-0.337,2.776-0.047,7.789,1.045,9.026  c0.243,0.275,0.495,0.528,0.74,0.772c1.024,1.025,2.084,2.084,1.622,4.087c-0.52,2.25-0.696,2.925-1.702,5.021  c-0.873,1.818-1.897,4.7-0.722,8.727c0.399,1.372,0.835,2.152,1.184,2.779c0.727,1.304,1.008,1.984,0.053,4.458  c-0.54,1.396-0.554,2.206-0.565,2.857c-0.021,1.196-0.119,1.896-1.991,3.508c-0.67,0.577-1.374,1.458-0.924,2.381  c0.451,0.922,1.861,1.493,3.083,1.25c1.106-0.221,1.625-1.149,2.126-2.047c0.502-0.897,1.021-1.826,2.115-1.878  c1.022-0.051,1.396,0.699,1.596,1.101c0.025,0.053,0.061,0.122,0.091,0.176c0.141-0.083,0.464-0.336,1.124-1.103  c1.035-1.202,1.479-1.824,1.805-2.279c0.498-0.697,0.704-0.985,2.093-2.116c0.663-0.541,1.214-1.049,1.656-1.458  c0.931-0.858,1.398-1.286,1.914-1.08c0.446,0.178,0.482,0.716,0.494,0.893c0.043,0.652-0.161,1.701-0.358,2.714  c-0.098,0.502-0.231,1.188-0.278,1.627c0.556-0.414,1.693-1.573,3.224-3.838c0.848-1.254,1.846-1.811,2.648-2.258  c1.277-0.711,2.12-1.181,1.933-4.096c-0.151-2.351,0.41-3.627,0.781-4.472c0.422-0.961,0.498-1.134-1.143-2.228  c-3.567-2.378-4.154-2.858-3.972-5.863c0.177-2.914,0.345-4.91,0.677-6.49c0.055-0.261,0.118-0.506,0.18-0.743  c0.307-1.181,0.491-1.894-0.728-3.234c-0.738-0.812-1.679-1.548-2.509-2.197c-1.065-0.833-1.985-1.552-2.396-2.32  c-0.71-1.332-1.247-3.634-0.875-5.031c0.215-0.804,0.379-1.092,0.588-1.457c0.133-0.231,0.294-0.513,0.521-1.031  c0.541-1.238,0.541-1.331,0.541-2.467c0-0.682,0.2-1.081,0.361-1.401c0.149-0.298,0.258-0.514,0.224-0.979  c-0.034-0.477-0.456-1.475-0.865-2.439c-0.516-1.219-1.003-2.37-1.052-3.148c-0.016-0.246-0.025-0.467-0.034-0.677  c-0.04-0.912-0.069-1.571-0.531-3.22c-0.625-2.23-5.047-10.764-8.251-12.442c-3.486-1.826-11.808-3.901-16.409-2.872  c-5.139,1.152-10.441,3.146-11.578,4.355c-0.226,0.24-0.536,0.546-0.898,0.902c-1.64,1.615-4.692,4.621-4.885,6.799  c-0.247,2.795-0.247,6.772-0.165,8.006c0.019,0.275-0.19,0.514-0.466,0.532c-0.268,0.02-0.514-0.189-0.532-0.466  c-0.084-1.261-0.084-5.317,0.167-8.161c0.225-2.544,3.326-5.599,5.18-7.423c0.351-0.346,0.652-0.643,0.871-0.875  c1.445-1.535,7.28-3.567,12.088-4.645c4.887-1.098,13.389,1.021,17.093,2.962c3.725,1.951,8.173,11.001,8.749,13.058  c0.493,1.759,0.526,2.503,0.567,3.445c0.009,0.204,0.019,0.419,0.033,0.658c0.038,0.608,0.536,1.784,0.975,2.821  c0.48,1.135,0.896,2.115,0.942,2.757c0.053,0.74-0.149,1.144-0.328,1.5c-0.143,0.284-0.255,0.507-0.255,0.953  c0,1.233-0.018,1.478-0.625,2.867c-0.248,0.567-0.426,0.878-0.568,1.127c-0.192,0.336-0.309,0.54-0.489,1.218  c-0.296,1.108,0.18,3.157,0.791,4.303c0.31,0.581,1.193,1.272,2.129,2.003c0.86,0.673,1.837,1.437,2.633,2.312  c1.582,1.741,1.277,2.915,0.955,4.158c-0.058,0.222-0.117,0.453-0.169,0.698c-0.318,1.513-0.487,3.549-0.657,6.344  c-0.147,2.422-0.015,2.608,3.528,4.97c2.128,1.419,2.098,2.11,1.503,3.462c-0.352,0.801-0.834,1.898-0.698,4.005  c0.229,3.546-1.069,4.269-2.443,5.034c-0.783,0.437-1.594,0.888-2.308,1.944c-0.697,1.032-3.068,4.404-4.308,4.455  c-0.233,0.008-0.441-0.081-0.581-0.255c-0.295-0.369-0.203-1.007,0.134-2.739c0.156-0.804,0.331-1.702,0.345-2.26  c-0.209,0.174-0.482,0.425-0.734,0.659c-0.452,0.418-1.016,0.938-1.704,1.499c-1.284,1.046-1.454,1.285-1.91,1.922  c-0.336,0.47-0.796,1.114-1.86,2.35c-0.998,1.158-1.532,1.544-2.051,1.482c-0.468-0.059-0.67-0.465-0.817-0.762  c-0.209-0.42-0.321-0.564-0.653-0.547c-0.514,0.024-0.824,0.536-1.289,1.367c-0.555,0.993-1.244,2.229-2.804,2.54  C58.077,91.32,57.819,91.344,57.562,91.344z"/><path d="M20.979,80.717c0,0-0.914-1.413-1.413-2.161c-0.611-0.917-1.385-2.313-1.689-2.872c-0.49-0.9-0.155-1.379,0.232-1.933  c0.168-0.24,0.376-0.538,0.599-0.957c0.521-0.983,0.453-1.197,0.171-2.095c-0.064-0.204-0.137-0.434-0.211-0.704  c-0.462-1.66-0.096-6.324,0.262-7.305c0.362-0.994,0.823-1.556,2.116-2.849c1.229-1.229,1.8-2.811,1.858-3.218  c0.077-0.533,0.156-2.772-0.226-3.844c-0.417-1.168-1.205-5.358-0.943-7.886c0.205-1.984,2.633-3.884,4.239-5.14  c0.448-0.352,0.912-0.714,1.03-0.866c0.169-0.219,0.483-0.257,0.702-0.087c0.218,0.169,0.257,0.484,0.087,0.702  c-0.193,0.249-0.596,0.563-1.204,1.039c-1.383,1.082-3.698,2.894-3.86,4.455c-0.242,2.348,0.509,6.376,0.891,7.448  c0.472,1.323,0.349,3.807,0.274,4.322c-0.111,0.773-0.869,2.51-2.142,3.782c-1.211,1.211-1.582,1.657-1.884,2.485  c-0.303,0.83-0.629,5.29-0.238,6.695c0.072,0.257,0.141,0.477,0.202,0.671c0.329,1.047,0.445,1.565-0.242,2.863  c-0.25,0.474-0.488,0.813-0.662,1.062c-0.36,0.515-0.367,0.525-0.173,0.881c0.62,1.138,1.234,2.183,1.643,2.795  c0.501,0.752,1.421,2.172,1.421,2.172L20.979,80.717z"/><path d="M18.982,83.195c-0.109,0-0.219-0.035-0.311-0.108c-0.216-0.171-0.253-0.485-0.082-0.702c0.12-0.152,2.997-3.733,7.779-4.843  c2.751-0.639,4.847-0.905,6.232-1.081c0.826-0.104,1.539-0.195,1.74-0.296c0.217-0.108,0.565-0.182,1.094-0.294  c1.317-0.278,3.77-0.796,4.426-2.218c0.938-2.033,1.288-5.295,1.288-6.874c0-1.457-0.061-2.223-0.061-2.231  c-0.022-0.275,0.183-0.516,0.458-0.539c0.273-0.02,0.517,0.183,0.538,0.458c0.003,0.032,0.064,0.809,0.064,2.312  c0,1.664-0.375,5.114-1.38,7.293c-0.866,1.877-3.533,2.441-5.127,2.778c-0.353,0.075-0.752,0.159-0.854,0.21  c-0.354,0.177-0.96,0.254-2.062,0.394c-1.366,0.173-3.431,0.436-6.132,1.062c-4.445,1.032-7.193,4.456-7.221,4.49  C19.276,83.13,19.13,83.195,18.982,83.195z"/><path d="M48.826,81.975c-2.324,0-4.887-0.304-6.801-0.795c-3.452-0.885-4.376-5.04-4.376-5.568c0-0.276,0.224-0.5,0.5-0.5  c0.271,0,0.491,0.215,0.5,0.483c0.016,0.117,0.634,3.849,3.624,4.616c3.296,0.844,8.637,1.105,10.851,0.189  c2.413-0.999,5.075-2.163,5.075-2.163l0.4,0.916c0,0-2.672,1.169-5.093,2.17C52.409,81.778,50.694,81.975,48.826,81.975z"/><path d="M42.899,80.862c0,0.264-1.751,2.667-2.084,3.667s-0.5,1.75,1,1.333s2.334-0.333,2.917-1.5s1.167-2.583,1.167-2.917  S42.899,80.695,42.899,80.862z"/><path d="M41.122,86.479L41.122,86.479c-0.481,0-0.73-0.207-0.855-0.38c-0.317-0.439-0.154-1.043,0.074-1.729  c0.211-0.631,0.856-1.648,1.426-2.545c0.256-0.403,0.571-0.899,0.642-1.057c0.029-0.169,0.16-0.444,0.69-0.444  c0.374,0,1.109,0.09,1.747,0.215c1.008,0.196,1.554,0.399,1.554,0.907c0,0.574-0.881,2.461-1.22,3.14  c-0.566,1.133-1.372,1.317-2.393,1.551c-0.253,0.058-0.531,0.122-0.838,0.207C41.62,86.435,41.35,86.479,41.122,86.479z   M41.088,85.476c0.019,0.001,0.034,0.003,0.034,0.003c0.092,0,0.265-0.018,0.56-0.1c0.322-0.089,0.615-0.157,0.882-0.218  c0.938-0.215,1.366-0.313,1.722-1.024c0.512-1.024,0.905-1.993,1.052-2.457c-0.472-0.146-1.511-0.325-2.093-0.354  c-0.115,0.213-0.31,0.524-0.633,1.034c-0.485,0.764-1.15,1.811-1.321,2.326C41.16,85.075,41.093,85.34,41.088,85.476z"/><path d="M38.675,53.173c-0.292,0-0.523-0.026-0.648-0.076c-0.116-0.046-0.219-0.117-0.348-0.205  c-0.364-0.25-1.043-0.714-2.482-0.759c-1.312-0.045-1.596,0.397-1.753,0.633c-0.082,0.122-0.185,0.274-0.386,0.341  c-0.261,0.089-0.545-0.053-0.633-0.316c-0.068-0.206,0.005-0.425,0.166-0.552c0.274-0.406,0.83-1.157,2.637-1.106  c1.732,0.054,2.6,0.648,3.017,0.934c0.065,0.045,0.116,0.083,0.159,0.104c0.24,0.055,1.875-0.049,2.677-0.529  c1.05-0.631,3.464,0.039,4.005,0.239c0.268,0.099,0.515,0.209,0.602,0.469c0.087,0.262-0.055,0.545-0.316,0.632  c-0.182,0.062-0.374,0.011-0.504-0.113c-0.478-0.242-2.672-0.729-3.272-0.37C40.82,52.963,39.504,53.173,38.675,53.173z"/><path d="M65.457,50.77c-0.391,0-0.929-0.019-1.688-0.058c-0.186-0.009-0.321-0.017-0.37-0.017c-0.276,0-0.5-0.224-0.5-0.5  s0.224-0.5,0.5-0.5c0.056,0,0.21,0.007,0.421,0.018c1.288,0.066,2.033,0.074,2.218,0.025h-0.001c-0.02,0,0.116-0.069,0.31-0.164  c0.651-0.318,2.176-1.063,3.188-2.138c1.007-1.069-0.169-4.9-2.17-7.068c-1.645-1.779-5.372,1.027-5.409,1.056  c-0.219,0.168-0.532,0.13-0.702-0.088c-0.169-0.218-0.129-0.533,0.089-0.702c0.182-0.141,4.475-3.418,6.757-0.944  c2.015,2.182,3.811,6.684,2.164,8.432c-1.138,1.208-2.777,2.009-3.478,2.351c-0.135,0.066-0.233,0.112-0.28,0.141  C66.353,50.716,66.118,50.77,65.457,50.77z"/><path d="M65.81,47.378c-0.368,0-0.798-0.256-1.283-0.766c-0.492-0.518-0.921-1.179-1.175-1.815c-0.598-1.494,1.244-2.331,1.85-2.606  c0.08-0.036,0.144-0.063,0.181-0.084c0.231-0.133,0.541-0.064,0.684,0.165c0.142,0.229,0.086,0.524-0.139,0.673  c-0.052,0.035-0.162,0.089-0.312,0.157c-1.092,0.496-1.504,0.904-1.336,1.324c0.409,1.022,1.247,1.838,1.526,1.944  c0.229-0.042,0.468,0.079,0.558,0.306c0.103,0.256-0.021,0.547-0.278,0.65C65.998,47.361,65.906,47.378,65.81,47.378z"/><path d="M43.565,30.529c0,0-1.5,0.167-1.583,0.75s2.833,1.666,3.75,1.583s4.001-0.333,4.417-0.333s5.25,1.833,5.25,1.833  s-3.918-3.583-4.334-3.583s-3.25-0.417-3.75-0.417S43.565,30.529,43.565,30.529z"/><path d="M55.399,34.862c-0.06,0-0.119-0.01-0.178-0.033c-2.239-0.849-4.761-1.755-5.104-1.802c-0.344,0.001-3.316,0.24-4.341,0.333  c-0.91,0.089-3.439-0.786-4.071-1.513c-0.22-0.253-0.24-0.487-0.219-0.638c0.124-0.873,1.456-1.113,2.022-1.177  c0.163-0.009,3.299-0.17,3.806-0.17c0.272,0,1.002,0.09,2.083,0.227c0.668,0.084,1.5,0.19,1.667,0.19c0.212,0,0.605,0,4.597,3.646  c0.153,0.085,0.257,0.249,0.257,0.437c0,0.276-0.224,0.5-0.5,0.5C55.414,34.861,55.406,34.861,55.399,34.862z M50.149,32.029  c0.269,0,1.496,0.415,2.934,0.937c-0.992-0.86-1.827-1.544-2.104-1.689c-0.27-0.015-0.844-0.086-1.707-0.196  c-0.77-0.097-1.728-0.219-1.957-0.219c-0.386,0-2.604,0.109-3.725,0.167c-0.369,0.042-0.798,0.163-1.01,0.277  c0.526,0.401,2.27,1.061,3.043,1.061C46.582,32.283,49.704,32.029,50.149,32.029z"/><path d="M27.399,32.945c0.471,0.186,1.739-0.02,2.333-0.079c0.717-0.071,1.432-0.364,2.148-0.403  c0.896-0.048,3.214,1.142,3.668-0.269c0.521-1.619-3.711-1.647-4.656-1.831c-1.097-0.213-3.709-0.534-3.993,0.998  c-0.052,0.281,0.023,0.527,0.166,0.75"/><path d="M68.89,82.795l-0.98-0.2c0.012-0.055,1.126-5.507,1.371-7.101c0.187-1.211-0.426-4.756-0.831-7.102  c-0.113-0.657-0.217-1.256-0.294-1.744c-0.379-2.399-2.145-8.898-3.098-11.4c-0.588-1.542-1.391-2.761-2.406-4.303  c-0.652-0.99-1.393-2.113-2.187-3.502c-2.089-3.656,0.238-10.379,0.338-10.664l0.943,0.332c-0.023,0.065-2.275,6.576-0.412,9.836  c0.777,1.362,1.508,2.47,2.152,3.448c1.008,1.531,1.879,2.853,2.505,4.497c0.991,2.6,2.758,9.104,3.152,11.6  c0.076,0.484,0.179,1.078,0.291,1.73c0.466,2.696,1.045,6.051,0.834,7.424C70.02,77.265,68.936,82.57,68.89,82.795z"/><path d="M77.983,79.598c-0.409-0.614-1.579-2.315-2.062-2.799c-0.933-0.933-2.621-10.171-2.639-10.264  c-0.304-1.674-1.13-3.868-2.005-6.191c-0.518-1.375-1.053-2.796-1.479-4.121c-1.094-3.401-2.935-6.49-2.953-6.521l0.857-0.515  c0.078,0.13,1.918,3.215,3.047,6.729c0.419,1.301,0.949,2.711,1.463,4.074c0.892,2.367,1.733,4.602,2.054,6.365  c0.739,4.069,1.936,9.212,2.368,9.744c0.646,0.645,2.118,2.85,2.181,2.943L77.983,79.598z"/><path d="M26.939,78.017c-0.413-0.965-1.551-3.576-1.844-4.064c-0.44-0.733-1.078-4.326-0.944-5.803  c0.1-1.098,0.922-2.449,1.716-3.756c0.301-0.493,0.597-0.979,0.842-1.436c0.781-1.451,0.193-4.065-0.794-7.888  c-0.905-3.51,0.044-7.034,0.4-8.36c0.045-0.167,0.079-0.29,0.094-0.363l0.98,0.196c-0.018,0.086-0.056,0.23-0.108,0.427  c-0.339,1.257-1.237,4.595-0.397,7.85c1.046,4.052,1.659,6.841,0.706,8.612c-0.254,0.471-0.559,0.973-0.868,1.481  c-0.735,1.209-1.495,2.459-1.574,3.327c-0.125,1.372,0.523,4.728,0.806,5.197c0.382,0.636,1.751,3.824,1.906,4.186L26.939,78.017z"/><path d="M34.846,76.703c-0.015-0.025-1.487-2.473-2.322-3.428c-0.838-0.957-0.805-2.474-0.767-4.231  c0.009-0.392,0.018-0.801,0.018-1.223c0-1.664,0.634-3.359,1.054-4.48c0.153-0.411,0.299-0.799,0.328-0.977l0.986,0.164  c-0.046,0.273-0.185,0.646-0.378,1.163c-0.395,1.054-0.99,2.647-0.99,4.13c0,0.43-0.009,0.846-0.018,1.245  c-0.034,1.549-0.062,2.886,0.519,3.551c0.895,1.022,2.365,3.468,2.428,3.572L34.846,76.703z"/><path d="M39.904,74.146c-2.015-2.913-2.484-9.753-2.504-10.043l0.998-0.065c0.004,0.068,0.471,6.854,2.328,9.541L39.904,74.146z"/><path d="M52.524,39.07c-0.195,0-0.382-0.116-0.462-0.308l-0.625-1.5c-0.517-1.242-0.76-1.571-3.374-1.693  c-2.228-0.106-2.782,1.911-2.804,1.997c-0.066,0.268-0.336,0.429-0.606,0.364c-0.269-0.067-0.431-0.338-0.364-0.606  c0.251-1.002,1.382-2.86,3.821-2.753c2.759,0.128,3.514,0.538,4.251,2.307l0.625,1.5c0.105,0.255-0.015,0.548-0.27,0.654  C52.654,39.058,52.589,39.07,52.524,39.07z"/><path d="M34.462,38.194c-0.193,0-0.377-0.113-0.459-0.301c-0.006-0.014-0.597-1.343-1.909-1.744  c-0.972-0.298-2.124-0.028-3.425,0.801c-0.229,0.148-0.54,0.081-0.69-0.152c-0.148-0.233-0.08-0.542,0.153-0.69  c1.563-0.997,3.003-1.303,4.267-0.911c1.757,0.544,2.493,2.231,2.523,2.303c0.108,0.253-0.01,0.545-0.263,0.654  C34.595,38.181,34.528,38.194,34.462,38.194z"/><path d="M39.162,47.637c-0.9,0-1.09-0.346-1.09-0.636s0.189-0.636,1.09-0.636c0.901,0,1.091,0.346,1.091,0.636  S40.063,47.637,39.162,47.637z"/></svg>