<svg xmlns="http://www.w3.org/2000/svg" xmlns:xlink="http://www.w3.org/1999/xlink" version="1.1" x="0px" y="0px" viewBox="0 0 100 125" enable-background="new 0 0 100 100" xml:space="preserve"><path d="M41.413,45.662c0.373,0.064,0.662,0.375,0.662,0.765c0,0.437-0.355,0.792-0.792,0.792s-0.792-0.355-0.792-0.792  c0-0.39,0.289-0.701,0.661-0.765H39.67c-0.111,0.233-0.179,0.49-0.179,0.765c0,0.988,0.804,1.792,1.792,1.792  s1.792-0.804,1.792-1.792c0-0.275-0.067-0.532-0.179-0.765H41.413z"/><path d="M34.045,47.561c-0.196,0-0.381-0.116-0.461-0.308c-0.106-0.255,0.014-0.548,0.269-0.654  c4.093-1.706,8.474-1.765,11.372-1.805c1.335-0.018,2.489-0.034,2.993-0.214c0.108-0.039,0.164-0.095,0.199-0.2  c0.244-0.744-0.771-2.743-1.57-3.924c-0.155-0.229-0.095-0.54,0.134-0.694c0.229-0.156,0.539-0.094,0.694,0.134  c0.367,0.543,2.174,3.324,1.692,4.796c-0.131,0.399-0.412,0.687-0.813,0.83c-0.66,0.236-1.774,0.251-3.315,0.272  c-2.822,0.038-7.086,0.097-11.001,1.728C34.174,47.549,34.109,47.561,34.045,47.561z"/><path d="M41.081,49.329c-2.954,0-4.989-2.351-5.076-2.453c-0.179-0.21-0.153-0.525,0.057-0.704c0.209-0.18,0.525-0.155,0.705,0.055  c0.019,0.022,1.9,2.175,4.458,2.099c1.787-0.056,3.515-1.174,5.138-3.326c0.166-0.22,0.479-0.266,0.7-0.098  c0.22,0.166,0.264,0.479,0.098,0.7c-1.817,2.408-3.807,3.661-5.915,3.723C41.19,49.328,41.135,49.329,41.081,49.329z"/><path d="M41.471,51.924c-3.6,0-6.37-4.359-6.489-4.55c-0.146-0.234-0.076-0.542,0.158-0.688c0.233-0.147,0.542-0.077,0.689,0.158  c0.027,0.043,2.724,4.281,5.881,4.072c1.972-0.139,3.774-2.002,5.355-5.54c0.112-0.251,0.406-0.367,0.661-0.252  c0.252,0.113,0.365,0.409,0.252,0.661c-1.745,3.902-3.831,5.965-6.202,6.129C41.675,51.92,41.573,51.924,41.471,51.924z"/><path d="M48.901,27.536c-0.269,0-0.491-0.214-0.5-0.484c-0.19-6.13-2.225-10.067-5.73-11.086c-0.141-0.042-0.226-0.066-0.311-0.122  c-0.23-0.152-0.294-0.462-0.142-0.693c0.14-0.211,0.411-0.283,0.633-0.176l0.099,0.03c3.955,1.15,6.246,5.417,6.451,12.015  c0.008,0.276-0.208,0.507-0.484,0.516C48.912,27.536,48.906,27.536,48.901,27.536z"/><path d="M46.968,27.427c-0.251,0-0.467-0.188-0.496-0.443c-1.04-9.118-8.759-9.223-8.836-9.223c-0.276,0-0.5-0.224-0.5-0.5  s0.224-0.5,0.5-0.5c0.087,0,8.69,0.116,9.83,10.11c0.031,0.274-0.166,0.522-0.44,0.553C47.006,27.426,46.987,27.427,46.968,27.427z"/><path d="M44.051,27.344c-0.249,0-0.464-0.186-0.496-0.438c-0.709-5.73-5.425-7.041-9.257-7.132  c-0.239-0.005-0.312-0.007-0.405-0.039c-0.262-0.087-0.403-0.371-0.316-0.632c0.08-0.239,0.319-0.377,0.563-0.334  c0.038,0.002,0.099,0.003,0.182,0.005c5.972,0.142,9.604,2.986,10.225,8.009c0.034,0.274-0.161,0.524-0.435,0.558  C44.092,27.343,44.072,27.344,44.051,27.344z"/><path d="M41.385,27.843c-0.257,0-0.476-0.197-0.498-0.458c-0.453-5.274-9.043-4.634-9.128-4.627  c-0.283,0.017-0.517-0.182-0.54-0.458c-0.022-0.275,0.183-0.517,0.458-0.54c0.395-0.03,9.67-0.718,10.206,5.539  c0.024,0.275-0.18,0.517-0.456,0.541C41.414,27.843,41.399,27.843,41.385,27.843z"/><path d="M38.552,28.427c-0.166,0-0.329-0.083-0.424-0.233c-1.497-2.377-4.031-2.591-7.748-0.654  c-0.326,0.169-0.424,0.221-0.579,0.221c-0.276,0-0.5-0.224-0.5-0.5c0-0.233,0.159-0.429,0.375-0.484  c0.051-0.023,0.133-0.067,0.242-0.124c5.243-2.731,7.818-0.958,9.057,1.008c0.147,0.234,0.077,0.542-0.157,0.69  C38.735,28.402,38.643,28.427,38.552,28.427z"/><path d="M24.886,73.01c-0.188,0-0.368-0.106-0.453-0.288c-1.642-3.496,0.272-8.456,1.539-11.738c0.283-0.734,0.53-1.373,0.687-1.874  c0.407-1.305,1.267-7.702,2.098-13.889c0.866-6.446,1.684-12.534,2.146-14.258c0.818-3.049,4.326-3.313,6.063-3.031  c0.272,0.045,0.457,0.301,0.413,0.574c-0.044,0.273-0.303,0.458-0.573,0.414c-0.169-0.027-4.15-0.632-4.937,2.302  c-0.446,1.662-1.297,8.001-2.121,14.132c-0.875,6.515-1.702,12.668-2.135,14.054c-0.164,0.525-0.416,1.179-0.708,1.936  c-1.205,3.123-3.026,7.843-1.566,10.953c0.117,0.25,0.01,0.548-0.24,0.665C25.03,72.995,24.957,73.01,24.886,73.01z"/><path d="M31.302,76.927c-0.101,0-0.203-0.031-0.292-0.094c-2.035-1.465-3.015-4.626-2.623-8.457  c0.197-1.922,1.209-7.506,2.023-11.992c0.487-2.685,0.947-5.224,0.976-5.593c-0.014-0.221,0.121-0.433,0.341-0.506  c0.262-0.084,0.545,0.055,0.632,0.317c0.067,0.204,0.075,0.225-0.965,5.96c-0.811,4.469-1.819,10.031-2.012,11.915  c-0.356,3.47,0.471,6.29,2.211,7.543c0.224,0.162,0.275,0.474,0.114,0.698C31.611,76.854,31.458,76.927,31.302,76.927z"/><path d="M35.386,77.927c-0.128,0-0.256-0.049-0.354-0.146c-5.491-5.49-2.5-14.548-2.37-14.931c0.089-0.262,0.373-0.398,0.634-0.313  c0.261,0.089,0.401,0.373,0.313,0.634c-0.03,0.088-2.918,8.855,2.13,13.902c0.195,0.195,0.195,0.512,0,0.707  C35.642,77.878,35.514,77.927,35.386,77.927z"/><path d="M38.323,84.802c0,0-0.002,0-0.003,0c-0.276-0.001-0.499-0.227-0.497-0.503c0.024-4.313,0.045-10.882,0.006-11.301  c-0.087-0.262,0.064-0.501,0.326-0.589c0.261-0.088,0.555,0.098,0.642,0.36c0.033,0.1,0.089,0.266,0.026,11.536  C38.822,84.58,38.598,84.802,38.323,84.802z"/><path d="M58.587,45.662c-0.373,0.064-0.662,0.375-0.662,0.765c0,0.437,0.355,0.792,0.792,0.792s0.792-0.355,0.792-0.792  c0-0.39-0.289-0.701-0.661-0.765h1.482c0.111,0.233,0.179,0.49,0.179,0.765c0,0.988-0.804,1.792-1.792,1.792  s-1.792-0.804-1.792-1.792c0-0.275,0.067-0.532,0.179-0.765H58.587z"/><path d="M65.955,47.561c-0.064,0-0.129-0.012-0.192-0.039c-3.915-1.631-8.179-1.689-11.001-1.728  c-1.542-0.021-2.655-0.037-3.315-0.272c-0.401-0.143-0.682-0.43-0.813-0.83c-0.482-1.472,1.325-4.253,1.692-4.796  c0.154-0.228,0.466-0.29,0.694-0.134c0.229,0.155,0.289,0.465,0.134,0.694c-0.798,1.182-1.813,3.181-1.57,3.924  c0.035,0.105,0.09,0.161,0.199,0.2c0.504,0.18,1.658,0.196,2.993,0.214c2.898,0.04,7.279,0.099,11.372,1.805  c0.255,0.106,0.375,0.399,0.269,0.654C66.336,47.445,66.151,47.561,65.955,47.561z"/><path d="M58.919,49.329c-0.055,0-0.109-0.001-0.164-0.002c-2.108-0.062-4.098-1.315-5.915-3.723c-0.167-0.221-0.123-0.534,0.098-0.7  c0.221-0.168,0.533-0.124,0.7,0.098c1.625,2.154,3.357,3.273,5.146,3.326c2.564,0.049,4.43-2.078,4.449-2.099  c0.179-0.21,0.495-0.235,0.705-0.057c0.21,0.179,0.235,0.495,0.057,0.705C63.908,46.978,61.873,49.329,58.919,49.329z"/><path d="M58.529,51.924c-0.102,0-0.204-0.003-0.307-0.011c-2.371-0.165-4.457-2.227-6.202-6.129c-0.113-0.252,0-0.548,0.252-0.661  c0.254-0.114,0.548,0.001,0.661,0.252c1.582,3.539,3.384,5.403,5.358,5.54c3.151,0.229,5.852-4.029,5.879-4.072  c0.146-0.234,0.454-0.305,0.689-0.159c0.234,0.146,0.305,0.455,0.159,0.689C64.898,47.565,62.128,51.924,58.529,51.924z"/><path d="M47.12,38.075c-3.825,0-7.722-0.963-11.062-2.751l-0.12-0.063c-0.262-0.087-0.384-0.363-0.296-0.625  c0.087-0.262,0.39-0.396,0.652-0.308c0.024,0.008,0.105,0.045,0.235,0.114c3.48,1.863,7.591,2.792,11.584,2.61l3.751,0  c4.021,0.183,8.126-0.747,11.606-2.61c0.13-0.069,0.211-0.106,0.235-0.114c0.265-0.089,0.545,0.054,0.632,0.316  c0.083,0.25-0.042,0.519-0.281,0.619l-0.115,0.061c-3.636,1.947-7.937,2.917-12.101,2.728l-3.706,0  C47.798,38.067,47.459,38.075,47.12,38.075z"/><path d="M48.698,32.739c-0.246-0.008-5.636-0.193-7.341-0.508c-0.272-0.05-0.451-0.311-0.401-0.583  c0.05-0.272,0.308-0.453,0.583-0.401c1.632,0.302,7.121,0.49,7.176,0.492l2.586,0c0.039-0.001,5.527-0.189,7.159-0.492  c0.271-0.051,0.533,0.129,0.583,0.401c0.05,0.271-0.129,0.532-0.401,0.583c-1.705,0.315-7.095,0.5-7.324,0.508L48.698,32.739z"/><path d="M48.259,73.261c-2.4,0.001-13.291-7.72-15.423-10.263c-2.274-2.713-1.482-11.257-1.447-11.619  c-0.035-0.295-0.834-9.417-0.413-12.032c0.061-0.376,0.114-0.824,0.173-1.321c0.345-2.886,0.922-7.716,4.423-9.542  c3.901-2.035,13.817-1.9,14.24-1.89c0.067,0.001,0.131,0.016,0.189,0.041c0.058-0.025,0.122-0.04,0.189-0.041  c0.419-0.01,10.339-0.146,14.24,1.89c3.5,1.826,4.078,6.657,4.423,9.542c0.059,0.497,0.113,0.945,0.173,1.321  c0.421,2.615-0.378,11.737-0.413,12.124c0.035,0.271,0.827,8.814-1.448,11.527c-2.146,2.558-13.132,10.333-15.488,10.262l-3.374,0  C48.289,73.261,48.274,73.261,48.259,73.261z M49.279,27.59c-2.101,0-10.052,0.114-13.245,1.78c-3.033,1.582-3.55,5.91-3.893,8.774  c-0.061,0.512-0.117,0.974-0.179,1.362C31.561,42,32.375,51.289,32.384,51.383c-0.226,2.445-0.447,8.986,1.218,10.973  c2.299,2.741,12.909,9.906,14.655,9.906c0.008,0,0.017,0,0.024,0l3.416,0c0.008,0,0.017,0,0.025,0  c1.768,0,12.377-7.165,14.676-9.905c1.667-1.988,1.445-8.528,1.219-10.881c0.008-0.186,0.822-9.476,0.421-11.968  c-0.062-0.388-0.118-0.85-0.179-1.362c-0.342-2.864-0.859-7.192-3.893-8.774c-3.677-1.918-13.66-1.779-13.76-1.777  c-0.08-0.003-0.143-0.013-0.206-0.041c-0.062,0.027-0.12,0.038-0.206,0.041C49.781,27.593,49.597,27.59,49.279,27.59z"/><path d="M37.969,78.843c-0.066,0-0.133-0.013-0.197-0.041c-0.021-0.008-0.806-0.306-7.267-2.06  c-7.409-2.012-9.58-9.894-9.939-11.454c-0.309-1.34,0.736-4.34,2.495-9.121c0.914-2.484,1.858-5.052,2.255-6.771  c0.484-2.097,1.081-5.574,1.771-9.602c0.757-4.413,1.615-9.415,2.642-14.551c1.823-9.113,15.072-11.394,19.09-11.876l0.144-0.018  c0.775-0.193,1.735-0.107,2.131,0.013l0.144,0.013c5.138,0.642,17.277,3.084,19.034,11.867c1.027,5.136,1.885,10.138,2.642,14.551  c0.69,4.027,1.287,7.505,1.771,9.602c0.396,1.718,1.341,4.287,2.255,6.771c1.759,4.781,2.804,7.78,2.495,9.121  c-0.36,1.56-2.531,9.442-9.939,11.454c-6.46,1.754-7.246,2.052-7.276,2.064c-0.253,0.1-0.544-0.022-0.647-0.275  c-0.103-0.253,0.012-0.541,0.263-0.648c0.063-0.027,0.806-0.315,7.399-2.106c7.003-1.902,9.02-9.817,9.227-10.713  c0.265-1.147-1.182-5.081-2.459-8.551c-0.924-2.513-1.88-5.111-2.291-6.891c-0.49-2.124-1.089-5.615-1.782-9.657  c-0.755-4.407-1.612-9.401-2.637-14.524c-1.675-8.374-14.337-10.591-18.178-11.071c-0.184-0.023-0.29-0.043-0.311-0.049  c-0.25-0.077-1.032-0.142-1.631,0.007c-0.017,0.004-0.097,0.017-0.234,0.034c-3.849,0.461-16.538,2.625-18.229,11.079  c-1.024,5.123-1.881,10.117-2.637,14.524c-0.693,4.042-1.292,7.533-1.782,9.657c-0.411,1.78-1.367,4.378-2.291,6.891  c-1.277,3.47-2.724,7.404-2.459,8.551c0.207,0.896,2.223,8.812,9.227,10.713c6.594,1.791,7.336,2.079,7.399,2.106  c0.253,0.109,0.371,0.403,0.262,0.657C38.347,78.73,38.163,78.843,37.969,78.843z"/><path d="M51.099,27.536c-0.005,0-0.011,0-0.016,0c-0.276-0.009-0.493-0.24-0.484-0.516c0.205-6.598,2.496-10.865,6.451-12.015  l0.109-0.033c0.229-0.151,0.505-0.071,0.658,0.16c0.152,0.23,0.054,0.559-0.177,0.711c-0.084,0.056-0.169,0.08-0.311,0.122  c-3.505,1.019-5.541,4.956-5.73,11.086C51.59,27.322,51.368,27.536,51.099,27.536z"/><path d="M53.032,27.427c-0.019,0-0.038-0.001-0.057-0.003c-0.274-0.031-0.471-0.279-0.44-0.553c1.139-9.994,9.743-10.11,9.83-10.11  c0.276,0,0.5,0.224,0.5,0.5s-0.224,0.5-0.5,0.5c-0.078,0-7.797,0.105-8.836,9.223C53.499,27.238,53.283,27.427,53.032,27.427z"/><path d="M55.949,27.344c-0.021,0-0.041-0.001-0.062-0.004c-0.274-0.034-0.469-0.283-0.435-0.558  c0.621-5.023,4.253-7.867,10.225-8.009c0.093-0.002,0.159-0.003,0.195-0.006c0.261-0.09,0.504,0.064,0.592,0.325  c0.087,0.262-0.095,0.555-0.357,0.642c-0.093,0.031-0.166,0.033-0.405,0.039c-3.832,0.091-8.548,1.402-9.257,7.132  C56.413,27.158,56.198,27.344,55.949,27.344z"/><path d="M58.615,27.843c-0.014,0-0.029,0-0.043-0.002c-0.275-0.023-0.479-0.266-0.456-0.541c0.537-6.257,9.811-5.569,10.206-5.539  c0.275,0.023,0.479,0.264,0.457,0.539c-0.022,0.275-0.266,0.474-0.539,0.458c-0.086-0.007-8.677-0.64-9.128,4.627  C59.09,27.646,58.872,27.843,58.615,27.843z"/><path d="M61.448,28.427c-0.091,0-0.183-0.025-0.266-0.077c-0.233-0.147-0.304-0.456-0.157-0.69c1.238-1.966,3.813-3.74,9.057-1.008  c0.108,0.057,0.19,0.101,0.242,0.124c0.216,0.056,0.375,0.251,0.375,0.484c0,0.276-0.224,0.5-0.5,0.5  c-0.155,0-0.253-0.051-0.579-0.221c-3.718-1.937-6.252-1.724-7.748,0.654C61.776,28.344,61.614,28.427,61.448,28.427z"/><path d="M75.114,73.01c-0.071,0-0.143-0.015-0.212-0.047c-0.25-0.117-0.357-0.415-0.24-0.665c1.46-3.11-0.361-7.83-1.566-10.953  c-0.292-0.757-0.544-1.411-0.708-1.936c-0.433-1.386-1.26-7.54-2.135-14.055c-0.824-6.131-1.675-12.47-2.121-14.132  c-0.79-2.946-4.895-2.311-4.937-2.302c-0.27,0.045-0.529-0.14-0.574-0.413c-0.044-0.272,0.14-0.529,0.413-0.574  c1.738-0.284,5.246-0.018,6.063,3.031c0.463,1.724,1.28,7.812,2.146,14.258c0.831,6.187,1.69,12.584,2.098,13.89  c0.157,0.501,0.404,1.14,0.687,1.874c1.267,3.282,3.18,8.242,1.539,11.738C75.482,72.904,75.302,73.01,75.114,73.01z"/><path d="M68.698,76.927c-0.155,0-0.309-0.072-0.406-0.208c-0.161-0.224-0.11-0.536,0.114-0.698c1.74-1.253,2.567-4.073,2.211-7.543  c-0.193-1.884-1.201-7.446-2.012-11.915c-1.04-5.735-1.033-5.756-0.965-5.96c0.087-0.262,0.37-0.401,0.632-0.317  c0.22,0.073,0.355,0.285,0.341,0.506c0.028,0.369,0.489,2.908,0.976,5.593c0.813,4.486,1.826,10.069,2.023,11.992  c0.392,3.83-0.588,6.992-2.623,8.457C68.901,76.896,68.799,76.927,68.698,76.927z"/><path d="M64.614,77.927c-0.128,0-0.256-0.049-0.354-0.146c-0.195-0.195-0.195-0.512,0-0.707c5.056-5.055,2.16-13.814,2.13-13.902  c-0.088-0.261,0.051-0.545,0.313-0.634c0.264-0.087,0.546,0.051,0.634,0.313c0.13,0.383,3.121,9.44-2.37,14.931  C64.87,77.878,64.742,77.927,64.614,77.927z"/><path d="M48.961,80.307c-2.573-0.136-8.888-4.375-15.049-11.234c-6.618-7.367-2.515-17.796-2.463-17.89  c0.134-0.242,0.438-0.329,0.68-0.193c0.241,0.134,0.328,0.439,0.193,0.68c-0.033,0.073-3.826,9.877,2.334,16.734  c6.241,6.948,12.333,10.796,14.331,10.902l2.052,0c1.971-0.105,8.063-3.954,14.305-10.902c6.16-6.857,2.367-16.661,2.324-16.754  c-0.113-0.244-0.017-0.541,0.223-0.663c0.24-0.121,0.53-0.039,0.66,0.195c0.052,0.094,4.155,10.522-2.463,17.89  c-6.161,6.859-12.476,11.098-15.022,11.233L48.961,80.307z"/><path d="M61.677,84.802c-0.275,0-0.499-0.222-0.5-0.497c-0.063-11.27-0.007-11.437,0.026-11.536  c0.087-0.261,0.369-0.405,0.632-0.316c0.237,0.079,0.375,0.317,0.335,0.556c-0.039,0.515-0.017,7.012,0.007,11.29  c0.001,0.276-0.221,0.501-0.497,0.503C61.679,84.802,61.678,84.802,61.677,84.802z"/><path d="M50.633,86.758c-0.211,0-0.423-0.001-0.633-0.004c-0.649,0.01-1.303,0.004-1.963-0.015c-0.09-0.003-0.174-0.029-0.246-0.073  c-5.817-0.383-10.934-1.952-14.692-4.546c-0.07-0.048-0.123-0.085-0.158-0.108c-0.18-0.076-0.306-0.253-0.306-0.461  c0-0.276,0.224-0.5,0.5-0.5c0.176,0,0.272,0.067,0.532,0.246c3.924,2.708,9.418,4.254,15.666,4.442h1.333  c6.249-0.188,11.742-1.734,15.666-4.442c0.259-0.179,0.356-0.246,0.532-0.246c0.276,0,0.5,0.224,0.5,0.5  c0,0.208-0.126,0.385-0.306,0.461c-0.036,0.022-0.088,0.06-0.158,0.108c-3.758,2.593-8.875,4.162-14.692,4.545  c-0.072,0.044-0.156,0.07-0.246,0.073C51.517,86.752,51.073,86.758,50.633,86.758z"/><path d="M45.197,44.677c-0.262,0-0.526-0.068-0.768-0.212l0,0c-0.042-0.025-4.251-2.485-8.274-1.575  c-0.809,0.181-1.612-0.323-1.794-1.131c-0.183-0.808,0.323-1.611,1.131-1.794c5.215-1.18,10.266,1.799,10.479,1.927  c0.71,0.426,0.94,1.348,0.514,2.058C46.203,44.417,45.707,44.677,45.197,44.677z"/><path d="M54.575,44.677c-0.51,0-1.006-0.259-1.288-0.728c-0.426-0.71-0.196-1.632,0.514-2.058c0.213-0.128,5.264-3.108,10.479-1.927  c0.808,0.183,1.314,0.986,1.131,1.794c-0.184,0.808-0.987,1.313-1.794,1.131c-4.055-0.918-8.229,1.548-8.271,1.573  C55.104,44.608,54.837,44.677,54.575,44.677z"/><path d="M49.806,27.07c-0.276,0-0.5-0.224-0.5-0.5V14.254c0-0.276,0.224-0.5,0.5-0.5s0.5,0.224,0.5,0.5V26.57  C50.306,26.846,50.082,27.07,49.806,27.07z"/><path d="M31.495,53.661c-0.016,0.859-0.326,1.628-0.503,2.256c-0.18,0.632-0.073,1.296-0.106,1.949  c-0.061,1.184-0.116,2.397,0.17,3.547c0.597,2.393,1.606,4.583,3.066,6.625c1.505,2.106,3.445,4.062,5.385,5.777  c0.693,0.613,1.448,1.133,2.146,1.724c0.619,0.524,1.147,1.136,1.788,1.632c1.116,0.865,2.332,1.6,3.695,1.942  c2.529,0.636,4.795,0.871,7.112-0.503c1.228-0.728,2.386-1.56,3.442-2.508c0.979-0.88,2.089-1.485,3.055-2.379  c1.03-0.954,2.06-1.737,2.877-2.863c0.857-1.182,2.021-2.066,2.887-3.249c1.367-1.868,2.452-4.332,2.766-6.623  c0.199-1.456,0.452-3.802-0.876-4.869c-0.127,0.716,0.146,1.5,0.035,2.247c-0.12,0.808-0.619,1.511-0.938,2.245  c-0.595,1.365-1.461,2.754-2.497,3.859c-0.948,1.012-2.284,1.747-3.349,2.66c-1.232,1.058-2.819,1.837-4.269,2.562  c-1.295,0.648-2.387,1.514-3.644,2.245c-1.425,0.828-2.348,0.797-3.911,0.8c-1.457,0.003-2.572-0.078-3.819-0.826  c-1.217-0.731-2.662-1.154-3.892-1.91c-1.26-0.775-2.346-1.871-3.628-2.652c-1.554-0.946-2.784-2.148-3.944-3.532  c-0.904-1.081-1.889-2.009-2.485-3.328c-0.553-1.224-0.617-3.43-0.438-4.736L31.495,53.661z"/><path d="M49.913,60.677c-1.861-0.062-3.591-1.718-3.923-2.411c-0.17-0.355-0.059-0.592,0.023-0.701  c0.165-0.424,2.14-7.877,3.416-12.764c0.066-0.254,0.315-0.413,0.571-0.366c0.253-0.048,0.504,0.112,0.571,0.366  c1.276,4.887,3.251,12.34,3.462,12.84c0.036,0.033,0.148,0.27-0.022,0.625c-0.332,0.693-2.062,2.349-3.907,2.411L49.913,60.677z   M46.926,57.899c0.272,0.448,1.643,1.732,3.004,1.778l0.157,0c1.345-0.045,2.715-1.329,2.987-1.777  c-0.214-0.63-0.859-2.87-3.074-11.329C47.785,55.03,47.14,57.269,46.926,57.899z"/><path d="M53.906,70.864c0-1.795-1.749-2.188-3.906-2.188l0,0c-2.157,0-3.906,0.393-3.906,2.188v1.062c0,1.795,1.749,3.25,3.906,3.25  l0,0c2.157,0,3.906-1.455,3.906-3.25V70.864z"/><path d="M50,75.677c-2.43,0-4.406-1.682-4.406-3.75v-1.062c0-2.688,3.201-2.688,4.406-2.688s4.406,0,4.406,2.688v1.062  C54.406,73.995,52.43,75.677,50,75.677z M50,69.177c-3.001,0-3.406,0.853-3.406,1.688v1.062c0,1.517,1.528,2.75,3.406,2.75  s3.406-1.233,3.406-2.75v-1.062C53.406,70.03,53.001,69.177,50,69.177z"/><path d="M54.823,67.114c-0.066,0-0.133-0.013-0.197-0.041c-4.135-1.771-8.773-0.131-8.82-0.114c-0.262,0.094-0.546-0.041-0.64-0.3  c-0.094-0.259,0.04-0.546,0.299-0.64c0.204-0.074,5.051-1.795,9.555,0.135c0.254,0.109,0.372,0.403,0.263,0.656  C55.202,67.001,55.017,67.114,54.823,67.114z"/><path d="M41.136,69.739c-0.133,0-0.266-0.053-0.364-0.157c-2.236-2.372-2.197-3.956-1.881-6.103  c0.418-2.845,7.383-4.819,8.176-5.035c0.266-0.075,0.541,0.084,0.614,0.351s-0.084,0.541-0.351,0.614  c-2.75,0.749-7.205,2.556-7.449,4.215c-0.289,1.964-0.356,3.177,1.619,5.272c0.189,0.201,0.18,0.517-0.021,0.707  C41.382,69.694,41.259,69.739,41.136,69.739z"/><path d="M58.985,69.739c-0.123,0-0.247-0.045-0.343-0.136c-0.201-0.189-0.21-0.506-0.021-0.707c1.975-2.095,1.908-3.308,1.619-5.272  c-0.244-1.659-4.699-3.466-7.449-4.215c-0.267-0.073-0.424-0.347-0.351-0.614s0.35-0.425,0.614-0.351  c0.792,0.216,7.757,2.189,8.176,5.035c0.316,2.147,0.355,3.731-1.881,6.103C59.251,69.687,59.118,69.739,58.985,69.739z"/><path d="M54.736,72.302c-0.145,0-0.289-0.062-0.388-0.184c-0.175-0.213-0.143-0.528,0.071-0.704  c0.752-0.615,2.484-2.288,2.318-4.513c-0.113-1.51-3.959-2.397-6.356-2.602l-0.682,0.002c-2.355,0.203-6.201,1.09-6.314,2.6  c-0.167,2.225,1.565,3.897,2.318,4.513c0.214,0.175,0.246,0.49,0.071,0.704c-0.175,0.214-0.49,0.246-0.704,0.071  c-1.847-1.511-2.824-3.465-2.682-5.362c0.213-2.843,6.547-3.462,7.269-3.523l0.767-0.002c0.764,0.063,7.098,0.683,7.311,3.525  c0.142,1.897-0.835,3.852-2.682,5.362C54.959,72.265,54.847,72.302,54.736,72.302z"/><path d="M51.511,59.885c-0.918,0.632-2.33,0.211-3.218-0.25c-1.067-0.555-1.835-0.269-2.979,0.072  c-0.718,0.213-1.313,0.484-1.972,0.851c-0.681,0.379-1.404,0.549-2.129,0.829c-1.085,0.419-1.598,1.647-1.912,2.686  c-0.16,0.531-0.273,1.174-0.197,1.73c0.099,0.717,0.509,1.345,0.839,1.972c0.351,0.668,0.627,1.351,1.036,1.994  c0.45,0.708,1.529,2.21,2.613,1.867c0.528-0.167,0.397-0.695,0.221-1.126c-0.43-1.047-0.764-1.82-0.761-2.958  c0.003-1,0.604-1.704,1.293-2.378c0.785-0.767,2.202-1.16,3.249-1.414c0.826-0.2,2.073-0.197,2.916-0.083  c0.862,0.116,1.72,0.157,2.541,0.468c0.726,0.275,1.48,0.543,2.252,0.792c0.456,0.148,0.934,0.196,1.24,0.614  c0.365,0.499,0.47,1.291,0.468,1.876c-0.006,1.269-0.465,2.312-0.061,3.621c0.273,0.884,0.81,1.952,1.91,1.677  c0.917-0.23,1.812-1.072,2.123-1.962c0.546-1.559-0.314-3.049-0.265-4.627c0.015-0.459,0.041-0.926,0.083-1.376  c0.068-0.719-0.092-1.15-0.489-1.752c-0.479-0.725-1.014-1.168-1.802-1.489c-0.688-0.28-1.194-0.927-1.925-1.229  c-0.932-0.384-1.866-0.717-2.825-1c-0.844-0.249-1.612-0.236-2.167,0.635"/></svg>